<svg width="69" height="70" viewBox="0 0 69 70" fill="none" xmlns="http://www.w3.org/2000/svg">
<g clip-path="url(#clip0_628_704)">
<path fill-rule="evenodd" clip-rule="evenodd" d="M30.4434 2.33451C29.6481 2.97464 29.5899 3.3432 29.5899 7.94051L29.5705 12.3633L28.6006 12.8288C26.331 13.8763 24.4106 16.7084 23.9839 19.6181C23.7899 20.8401 23.8093 21.1117 24.0615 21.4997L24.3524 21.9652H32.3638C38.3383 21.9652 40.4333 21.907 40.6079 21.7325C40.957 21.3833 40.8794 19.4241 40.4527 18.0275C39.735 15.6997 38.1055 13.7017 36.1464 12.79L35.2347 12.3633L35.2153 9.97729V7.61074H36.4373H37.6788L39.5992 9.8803C40.6467 11.1218 42.8386 13.6823 44.4487 15.5833C46.0587 17.4649 47.4359 19.0943 47.5135 19.2107C47.5717 19.3077 47.3196 19.7151 46.9316 20.103L46.2527 20.782L46.3109 24.0796C46.3885 28.4247 46.2333 28.2308 49.9189 28.3665L52.5764 28.4635L52.6346 30.3451L52.6928 32.2461L22.8976 32.2267L21.016 30.3645L19.1344 28.4829L19.2508 27.2997C19.5417 24.0408 17.5632 20.5492 14.1491 18.299C12.2287 17.0188 10.9679 16.6502 8.96988 16.8054C8.09697 16.8636 6.64213 16.9412 5.73042 16.98C3.86822 17.0382 2.95652 17.4067 1.92843 18.5124C0.919742 19.5599 0.609375 20.3552 0.609375 21.8682C0.609375 22.9157 0.706365 23.4201 1.05553 24.099C1.59867 25.1465 17.8929 41.5959 18.8434 42.0421C19.3672 42.2942 20.6086 42.333 26.3892 42.333C30.7731 42.333 33.4306 42.2555 33.6828 42.1391C34.032 41.9451 34.0514 42.0227 34.0514 45.4949C34.0514 48.9477 34.0708 49.0641 34.4975 49.4521C34.7303 49.6655 35.0795 49.8982 35.2735 49.9564C35.5838 50.0728 35.6032 50.5384 35.6032 55.9892V61.9249L35.1765 62.0025C34.9243 62.0607 34.032 62.1965 33.1785 62.3129C29.6481 62.8366 27.844 63.8259 27.844 65.2032C27.844 65.7463 27.9798 66.0567 28.4066 66.464C30.9283 68.8888 43.9637 69.2767 48.5222 67.0654C49.8607 66.4059 50.3262 65.5523 49.8607 64.5825C49.3369 63.4768 47.5135 62.7009 44.3323 62.2547L42.4895 62.0025L42.4313 55.9504C42.3925 51.0427 42.4313 49.8982 42.6447 49.8982C42.7804 49.8982 43.0714 49.7818 43.2848 49.6267C43.6146 49.3745 43.6534 49.0253 43.7503 45.8829L43.8473 42.43L48.5804 42.3718L53.3329 42.333L57.0185 45.9992C59.0553 48.0166 61.0339 49.8206 61.4024 49.9952C62.4111 50.519 64.3121 50.5966 65.4178 50.1892C66.6011 49.7236 67.765 48.6568 68.2305 47.5705C68.7155 46.4842 68.7349 44.6608 68.2887 43.5939C68.0559 43.0508 66.4653 41.305 63.1289 37.9491L58.2794 33.0996L58.3376 30.7719L58.3958 28.4635L59.0747 28.4247C59.4433 28.4053 60.5683 28.3859 61.5576 28.3859C63.3034 28.3665 63.4004 28.3471 63.9436 27.804L64.5061 27.2415V24.002C64.5061 22.1592 64.4285 20.6074 64.3121 20.394C63.866 19.5793 63.1871 19.4435 59.2299 19.4435H55.4667L53.0613 16.689C42.5671 4.70105 40.4527 2.3733 39.929 2.15992C39.6768 2.06293 37.5236 1.98535 35.1571 1.98535C31.3745 1.98535 30.7925 2.04354 30.4434 2.33451ZM48.9878 14.8656C47.8821 13.5659 39.7932 4.44888 39.444 4.08032C39.1336 3.76996 38.6681 3.73116 35.3316 3.73116C33.2561 3.73116 31.5103 3.80874 31.4521 3.90574C31.3939 3.98333 31.3745 5.80674 31.3939 7.92111L31.4327 11.7813L32.3638 11.8395L33.2755 11.8977V9.22077C33.2755 5.57396 33.1979 5.67095 36.1658 5.67095H38.4547L42.1209 9.97729C44.1383 12.3439 46.7764 15.4281 47.9791 16.8636L50.1711 19.4435H51.5095C52.266 19.4435 52.8674 19.4047 52.8674 19.3465C52.8674 19.2883 52.1496 18.4348 51.2573 17.4455C50.3844 16.4562 49.3563 15.3117 48.9878 14.8656ZM36.9611 15.6803C36.5149 15.1954 35.642 14.5552 35.0407 14.2837C32.4995 13.0616 29.5705 13.7017 27.6695 15.8743C26.9129 16.7084 25.9625 18.687 25.8655 19.5405L25.8073 20.1224H32.4026H38.9979L38.9397 19.5405C38.8427 18.59 37.834 16.6308 36.9611 15.6803ZM17.3692 25.612C16.923 23.2261 14.7117 20.5492 12.0735 19.2107C11.0067 18.6676 9.41603 18.299 9.41603 18.59C9.41603 18.8228 17.3304 26.7177 17.4468 26.6207C17.4856 26.5625 17.4468 26.1164 17.3692 25.612ZM15.022 26.8923C11.0261 22.8963 7.51503 19.4629 7.18527 19.2689C5.0321 17.9693 2.43278 19.4435 2.43278 21.9652C2.43278 22.392 2.54917 22.9933 2.70435 23.2843C2.85953 23.5753 6.71972 27.5324 11.2976 32.0909L19.5999 40.3932H28.6782H46.1169H54.0894L58.0854 44.3504C61.4412 47.6869 62.2172 48.3464 62.8961 48.521C64.3509 48.9089 65.7864 48.2688 66.4265 46.9109C66.9309 45.8829 66.9502 45.0488 66.4653 44.1176C66.2519 43.7297 64.0018 41.3243 61.4412 38.7832L56.8051 34.1859H51.1991H32.5965H22.2962L15.022 26.8923ZM62.7603 26.6207V24.002V21.3833H55.4861C49.6667 21.3833 48.1731 21.4415 48.0955 21.6355C48.0567 21.7712 48.0373 22.9351 48.0567 24.2154L48.1149 26.5237L55.4473 26.5819L62.7603 26.6207ZM56.5724 32.2461L56.5142 30.3645L56.456 28.4635L55.5443 28.4053L54.6132 28.3277V30.2869V32.2461H55.5831H56.5724ZM42.0045 42.333H39.3082H35.8942V48.1718H42.0045V45.2427V42.333ZM40.4527 61.9249L40.4139 55.9504L40.3557 49.9952L38.9979 49.937C38.2413 49.9176 37.5624 49.937 37.4848 50.0146C37.4072 50.0922 37.349 52.8079 37.349 56.0474V61.9249H38.9009H40.4527ZM48.0179 65.1838C48.0179 64.9704 45.6319 64.2721 44.1383 64.0393C42.2761 63.7677 36.9223 63.6707 35.0407 63.8841C32.4608 64.1751 29.9778 64.8152 29.9778 65.2032C29.9778 65.7269 33.6246 66.4834 37.252 66.6774C39.4828 66.8132 43.6727 66.5416 45.2634 66.1731C46.6018 65.8627 48.0179 65.3584 48.0179 65.1838Z" fill="#995C19"/>
<mask id="mask0_628_704" style="mask-type:luminance" maskUnits="userSpaceOnUse" x="-1" y="1" width="71" height="69">
<path d="M69.6094 1.52246H-0.390625V69.5225H69.6094V1.52246Z" fill="white"/>
<path fill-rule="evenodd" clip-rule="evenodd" d="M30.4434 2.33451C29.6481 2.97464 29.5899 3.3432 29.5899 7.94051L29.5705 12.3633L28.6006 12.8288C26.331 13.8763 24.4106 16.7084 23.9839 19.6181C23.7899 20.8401 23.8093 21.1117 24.0615 21.4997L24.3524 21.9652H32.3638C38.3383 21.9652 40.4333 21.907 40.6079 21.7325C40.957 21.3833 40.8794 19.4241 40.4527 18.0275C39.735 15.6997 38.1055 13.7017 36.1464 12.79L35.2347 12.3633L35.2153 9.97729V7.61074H36.4373H37.6788L39.5992 9.8803C40.6467 11.1218 42.8386 13.6823 44.4487 15.5833C46.0587 17.4649 47.4359 19.0943 47.5135 19.2107C47.5717 19.3077 47.3196 19.7151 46.9316 20.103L46.2527 20.782L46.3109 24.0796C46.3885 28.4247 46.2333 28.2308 49.9189 28.3665L52.5764 28.4635L52.6346 30.3451L52.6928 32.2461L22.8976 32.2267L21.016 30.3645L19.1344 28.4829L19.2508 27.2997C19.5417 24.0408 17.5632 20.5492 14.1491 18.299C12.2287 17.0188 10.9679 16.6502 8.96988 16.8054C8.09697 16.8636 6.64213 16.9412 5.73042 16.98C3.86822 17.0382 2.95652 17.4067 1.92843 18.5124C0.919742 19.5599 0.609375 20.3552 0.609375 21.8682C0.609375 22.9157 0.706365 23.4201 1.05553 24.099C1.59867 25.1465 17.8929 41.5959 18.8434 42.0421C19.3672 42.2942 20.6086 42.333 26.3892 42.333C30.7731 42.333 33.4306 42.2555 33.6828 42.1391C34.032 41.9451 34.0514 42.0227 34.0514 45.4949C34.0514 48.9477 34.0708 49.0641 34.4975 49.4521C34.7303 49.6655 35.0795 49.8982 35.2735 49.9564C35.5838 50.0728 35.6032 50.5384 35.6032 55.9892V61.9249L35.1765 62.0025C34.9243 62.0607 34.032 62.1965 33.1785 62.3129C29.6481 62.8366 27.844 63.8259 27.844 65.2032C27.844 65.7463 27.9798 66.0567 28.4066 66.464C30.9283 68.8888 43.9637 69.2767 48.5222 67.0654C49.8607 66.4059 50.3262 65.5523 49.8607 64.5825C49.3369 63.4768 47.5135 62.7009 44.3323 62.2547L42.4895 62.0025L42.4313 55.9504C42.3925 51.0427 42.4313 49.8982 42.6447 49.8982C42.7804 49.8982 43.0714 49.7818 43.2848 49.6267C43.6146 49.3745 43.6534 49.0253 43.7503 45.8829L43.8473 42.43L48.5804 42.3718L53.3329 42.333L57.0185 45.9992C59.0553 48.0166 61.0339 49.8206 61.4024 49.9952C62.4111 50.519 64.3121 50.5966 65.4178 50.1892C66.6011 49.7236 67.765 48.6568 68.2305 47.5705C68.7155 46.4842 68.7349 44.6608 68.2887 43.5939C68.0559 43.0508 66.4653 41.305 63.1289 37.9491L58.2794 33.0996L58.3376 30.7719L58.3958 28.4635L59.0747 28.4247C59.4433 28.4053 60.5683 28.3859 61.5576 28.3859C63.3034 28.3665 63.4004 28.3471 63.9436 27.804L64.5061 27.2415V24.002C64.5061 22.1592 64.4285 20.6074 64.3121 20.394C63.866 19.5793 63.1871 19.4435 59.2299 19.4435H55.4667L53.0613 16.689C42.5671 4.70105 40.4527 2.3733 39.929 2.15992C39.6768 2.06293 37.5236 1.98535 35.1571 1.98535C31.3745 1.98535 30.7925 2.04354 30.4434 2.33451ZM48.9878 14.8656C47.8821 13.5659 39.7932 4.44888 39.444 4.08032C39.1336 3.76996 38.6681 3.73116 35.3316 3.73116C33.2561 3.73116 31.5103 3.80874 31.4521 3.90574C31.3939 3.98333 31.3745 5.80674 31.3939 7.92111L31.4327 11.7813L32.3638 11.8395L33.2755 11.8977V9.22077C33.2755 5.57396 33.1979 5.67095 36.1658 5.67095H38.4547L42.1209 9.97729C44.1383 12.3439 46.7764 15.4281 47.9791 16.8636L50.1711 19.4435H51.5095C52.266 19.4435 52.8674 19.4047 52.8674 19.3465C52.8674 19.2883 52.1496 18.4348 51.2573 17.4455C50.3844 16.4562 49.3563 15.3117 48.9878 14.8656ZM36.9611 15.6803C36.5149 15.1954 35.642 14.5552 35.0407 14.2837C32.4995 13.0616 29.5705 13.7017 27.6695 15.8743C26.9129 16.7084 25.9625 18.687 25.8655 19.5405L25.8073 20.1224H32.4026H38.9979L38.9397 19.5405C38.8427 18.59 37.834 16.6308 36.9611 15.6803ZM17.3692 25.612C16.923 23.2261 14.7117 20.5492 12.0735 19.2107C11.0067 18.6676 9.41603 18.299 9.41603 18.59C9.41603 18.8228 17.3304 26.7177 17.4468 26.6207C17.4856 26.5625 17.4468 26.1164 17.3692 25.612ZM15.022 26.8923C11.0261 22.8963 7.51503 19.4629 7.18527 19.2689C5.0321 17.9693 2.43278 19.4435 2.43278 21.9652C2.43278 22.392 2.54917 22.9933 2.70435 23.2843C2.85953 23.5753 6.71972 27.5324 11.2976 32.0909L19.5999 40.3932H28.6782H46.1169H54.0894L58.0854 44.3504C61.4412 47.6869 62.2172 48.3464 62.8961 48.521C64.3509 48.9089 65.7864 48.2688 66.4265 46.9109C66.9309 45.8829 66.9502 45.0488 66.4653 44.1176C66.2519 43.7297 64.0018 41.3243 61.4412 38.7832L56.8051 34.1859H51.1991H32.5965H22.2962L15.022 26.8923ZM62.7603 26.6207V24.002V21.3833H55.4861C49.6667 21.3833 48.1731 21.4415 48.0955 21.6355C48.0567 21.7712 48.0373 22.9351 48.0567 24.2154L48.1149 26.5237L55.4473 26.5819L62.7603 26.6207ZM56.5724 32.2461L56.5142 30.3645L56.456 28.4635L55.5443 28.4053L54.6132 28.3277V30.2869V32.2461H55.5831H56.5724ZM42.0045 42.333H39.3082H35.8942V48.1718H42.0045V45.2427V42.333ZM40.4527 61.9249L40.4139 55.9504L40.3557 49.9952L38.9979 49.937C38.2413 49.9176 37.5624 49.937 37.4848 50.0146C37.4072 50.0922 37.349 52.8079 37.349 56.0474V61.9249H38.9009H40.4527ZM48.0179 65.1838C48.0179 64.9704 45.6319 64.2721 44.1383 64.0393C42.2761 63.7677 36.9223 63.6707 35.0407 63.8841C32.4608 64.1751 29.9778 64.8152 29.9778 65.2032C29.9778 65.7269 33.6246 66.4834 37.252 66.6774C39.4828 66.8132 43.6727 66.5416 45.2634 66.1731C46.6018 65.8627 48.0179 65.3584 48.0179 65.1838Z" fill="black"/>
</mask>
<g mask="url(#mask0_628_704)">
<path d="M34.5951 32.4845L22.8982 32.4263L22.9002 32.0263L34.5971 32.0845L34.5951 32.4845ZM42.0023 48.3714L38.9568 48.3132L38.9645 47.9133L42.01 47.9715L42.0023 48.3714ZM22.2978 33.9855H56.8067V34.3855H22.2978V33.9855ZM30.445 2.33412L30.7011 2.64145L30.6958 2.64573L30.445 2.33412ZM29.5915 7.94012H29.9915V7.94187L29.5915 7.94012ZM29.5721 12.3629L29.9721 12.3646L29.971 12.6151L29.7452 12.7235L29.5721 12.3629ZM28.6022 12.8284L28.7753 13.1891L28.7698 13.1916L28.6022 12.8284ZM23.9855 19.6177L24.3813 19.6757L24.3805 19.6804L23.9855 19.6177ZM24.0631 21.4993L24.3985 21.2813L24.4023 21.2873L24.0631 21.4993ZM24.354 21.9648V22.3648H24.1323L24.0148 22.1768L24.354 21.9648ZM40.4543 18.0271L40.8365 17.9092L40.8368 17.9102L40.4543 18.0271ZM35.2363 12.3629L35.0667 12.7251L34.8383 12.6182L34.8363 12.3661L35.2363 12.3629ZM35.2169 9.9769L34.8169 9.98015V9.9769H35.2169ZM35.2169 7.61035H34.8169V7.21035H35.2169V7.61035ZM37.6804 7.61035V7.21035H37.8659L37.9857 7.35197L37.6804 7.61035ZM44.4503 15.5829L44.1463 15.843L44.145 15.8414L44.4503 15.5829ZM47.5151 19.2103L47.848 18.9884L47.8532 18.9964L47.8581 19.0045L47.5151 19.2103ZM46.2543 20.7816L45.8543 20.7886L45.8513 20.6188L45.9714 20.4987L46.2543 20.7816ZM52.578 28.4631L52.5926 28.0634L52.9662 28.077L52.9778 28.4508L52.578 28.4631ZM52.6944 32.2457L53.0942 32.2335L53.1068 32.646L52.6941 32.6457L52.6944 32.2457ZM22.8992 32.2263L22.8989 32.6263L22.7346 32.6262L22.6178 32.5106L22.8992 32.2263ZM21.0176 30.3641L20.7362 30.6484L20.7347 30.647L21.0176 30.3641ZM19.136 28.4825L18.8531 28.7654L18.7194 28.6316L18.7379 28.4434L19.136 28.4825ZM19.2524 27.2993L19.6508 27.3348L19.6505 27.3384L19.2524 27.2993ZM14.1507 18.2986L13.9306 18.6326L13.9288 18.6314L14.1507 18.2986ZM8.97144 16.805L9.00241 17.2038L8.99804 17.2041L8.97144 16.805ZM5.73198 16.9796L5.74899 17.3792L5.74448 17.3794L5.73198 16.9796ZM1.92999 18.512L2.22297 18.7844L2.21812 18.7895L1.92999 18.512ZM1.05709 24.0986L0.701986 24.2827L0.701375 24.2815L1.05709 24.0986ZM18.845 42.0417L19.015 41.6796L19.0185 41.6813L18.845 42.0417ZM33.6844 42.1387L33.8787 42.4883L33.8656 42.4956L33.852 42.5018L33.6844 42.1387ZM34.4991 49.4517L34.7682 49.1557L34.7694 49.1568L34.4991 49.4517ZM35.2751 49.956L35.39 49.5729L35.4029 49.5768L35.4155 49.5815L35.2751 49.956ZM35.6048 61.9245H36.0048V62.2584L35.6764 62.3181L35.6048 61.9245ZM35.1781 62.0021L35.0881 61.6124L35.0973 61.6103L35.1065 61.6086L35.1781 62.0021ZM33.1801 62.3125L33.1214 61.9168L33.126 61.9162L33.1801 62.3125ZM28.4082 66.4636L28.6844 66.1743L28.6854 66.1753L28.4082 66.4636ZM48.5238 67.065L48.7006 67.4238L48.6984 67.4249L48.5238 67.065ZM49.8623 64.5821L49.5017 64.7551L49.5008 64.7533L49.8623 64.5821ZM44.3339 62.2543L44.3881 61.858L44.3894 61.8582L44.3339 62.2543ZM42.4911 62.0021L42.4368 62.3984L42.0944 62.3516L42.0911 62.006L42.4911 62.0021ZM43.2864 49.6263L43.5294 49.9441L43.5217 49.9497L43.2864 49.6263ZM43.7519 45.8825L44.1518 45.8937V45.8948L43.7519 45.8825ZM43.8489 42.4296L43.4491 42.4184L43.4599 42.0344L43.844 42.0297L43.8489 42.4296ZM48.582 42.3714L48.5771 41.9715H48.5788L48.582 42.3714ZM53.3345 42.3326L53.3312 41.9327L53.4982 41.9313L53.6166 42.0491L53.3345 42.3326ZM61.404 49.9948L61.5753 49.6333L61.5819 49.6365L61.5884 49.6398L61.404 49.9948ZM65.4194 50.1888L65.5659 50.5611L65.5577 50.5641L65.4194 50.1888ZM68.2321 47.5701L67.8644 47.4125L67.8669 47.407L68.2321 47.5701ZM68.2903 43.5935L68.658 43.4359L68.6593 43.4392L68.2903 43.5935ZM63.1305 37.9487L63.4133 37.6659L63.4141 37.6667L63.1305 37.9487ZM58.281 33.0992L57.9981 33.3821L57.8768 33.2608L57.8811 33.0892L58.281 33.0992ZM58.3974 28.4631L57.9975 28.453L58.0068 28.0848L58.3745 28.0638L58.3974 28.4631ZM59.0763 28.4243L59.0535 28.025L59.0553 28.0249L59.0763 28.4243ZM61.5592 28.3855L61.5637 28.7855H61.5592V28.3855ZM64.5077 27.2411H64.9077V27.4067L64.7906 27.5239L64.5077 27.2411ZM55.4683 19.4431V19.8431H55.2865L55.167 19.7062L55.4683 19.4431ZM39.9306 2.15953L40.0742 1.78612L40.0815 1.7891L39.9306 2.15953ZM39.4456 4.07993L39.7286 3.79699L39.736 3.80483L39.4456 4.07993ZM48.9894 14.8652L49.2941 14.606L49.2978 14.6104L48.9894 14.8652ZM51.2589 17.4451L50.9619 17.713L50.959 17.7098L51.2589 17.4451ZM50.1727 19.4431V19.8431H49.9876L49.8678 19.7021L50.1727 19.4431ZM47.9807 16.8632L47.6758 17.1222L47.6741 17.1201L47.9807 16.8632ZM38.4563 5.67056V5.27056H38.6411L38.7609 5.41126L38.4563 5.67056ZM33.2771 11.8973H33.6771V12.3237L33.2516 12.2965L33.2771 11.8973ZM31.4343 11.7809L31.4093 12.1801L31.038 12.1569L31.0343 11.7849L31.4343 11.7809ZM31.4537 3.90535L31.7967 4.11114L31.786 4.12884L31.7737 4.14534L31.4537 3.90535ZM35.0423 14.2833L34.8776 14.6479L34.8689 14.6437L35.0423 14.2833ZM38.9995 20.122L39.3975 20.0822L39.4414 20.522H38.9995V20.122ZM25.8089 20.122V20.522H25.3669L25.4109 20.0822L25.8089 20.122ZM25.8671 19.5401L25.469 19.5003L25.4696 19.4949L25.8671 19.5401ZM27.6711 15.8739L27.9721 16.1373L27.9674 16.1426L27.6711 15.8739ZM17.3708 25.6116L17.7642 25.5381L17.7661 25.5508L17.3708 25.6116ZM17.4484 26.6203L17.7812 26.8422L17.749 26.8905L17.7044 26.9276L17.4484 26.6203ZM7.18683 19.2685L6.98401 19.6133L6.98012 19.611L7.18683 19.2685ZM22.2978 34.1855V34.5855H22.1318L22.0146 34.468L22.2978 34.1855ZM56.8067 34.1855V33.7855H56.9714L57.0884 33.9015L56.8067 34.1855ZM66.4669 44.1172L66.8175 43.9244L66.8217 43.9325L66.4669 44.1172ZM66.4281 46.9105L66.0663 46.74L66.069 46.7344L66.4281 46.9105ZM62.8977 48.5206L62.9973 48.1332L63.0007 48.1341L62.8977 48.5206ZM54.091 40.3928V39.9929H54.2556L54.3725 40.1086L54.091 40.3928ZM19.6015 40.3928V40.7928H19.4358L19.3187 40.6757L19.6015 40.3928ZM62.7619 26.6203H63.1619V27.0225L62.7598 27.0203L62.7619 26.6203ZM55.4489 26.5815L55.4468 26.9815H55.4457L55.4489 26.5815ZM48.1165 26.5233L48.1133 26.9233L47.7264 26.9203L47.7166 26.5334L48.1165 26.5233ZM48.0583 24.215L47.6584 24.2251L47.6583 24.2211L48.0583 24.215ZM48.0971 21.6351L47.7125 21.5252L47.7181 21.5055L47.7257 21.4865L48.0971 21.6351ZM62.7619 21.3829V20.9829H63.1619V21.3829H62.7619ZM56.574 32.2457L56.9738 32.2334L56.9865 32.6457H56.574V32.2457ZM54.6148 32.2457V32.6457H54.2148V32.2457H54.6148ZM54.6148 28.3273H54.2148V27.8926L54.648 27.9287L54.6148 28.3273ZM55.5459 28.4049L55.5204 28.8042L55.5127 28.8036L55.5459 28.4049ZM56.4576 28.4631L56.4831 28.0639L56.8463 28.0871L56.8574 28.4509L56.4576 28.4631ZM42.0061 42.3326V41.9326H42.4061V42.3326H42.0061ZM42.0061 48.1714H42.4061V48.5714H42.0061V48.1714ZM40.4155 55.95L40.8155 55.9461V55.9474L40.4155 55.95ZM40.4543 61.9245L40.8543 61.9219L40.8569 62.3245H40.4543V61.9245ZM37.3506 61.9245V62.3245H36.9506V61.9245H37.3506ZM38.9995 49.9366L39.0097 49.5367L39.0166 49.537L38.9995 49.9366ZM40.3573 49.9948L40.3744 49.5952L40.7536 49.6114L40.7573 49.9909L40.3573 49.9948ZM44.1399 64.0389L44.1976 63.6431L44.2015 63.6437L44.1399 64.0389ZM37.2536 66.677L37.275 66.2776L37.2779 66.2778L37.2536 66.677ZM35.8958 48.1714V48.5714H35.4958V48.1714H35.8958ZM35.8958 42.3326H35.4958V41.9326H35.8958V42.3326ZM30.6958 2.64573C30.5081 2.79673 30.3999 2.90406 30.3195 3.03871C30.2385 3.17437 30.1681 3.36837 30.1154 3.71352C30.0072 4.42268 29.9915 5.62626 29.9915 7.94012H29.1915C29.1915 5.65667 29.2048 4.37732 29.3246 3.59284C29.3858 3.19117 29.4791 2.88566 29.6327 2.62852C29.7868 2.37037 29.9841 2.19156 30.1942 2.02251L30.6958 2.64573ZM29.9915 7.94187L29.9721 12.3646L29.1721 12.3611L29.1915 7.93836L29.9915 7.94187ZM29.7452 12.7235L28.7753 13.1891L28.4291 12.4678L29.399 12.0023L29.7452 12.7235ZM28.7698 13.1916C26.6468 14.1714 24.7926 16.8715 24.3813 19.6757L23.5897 19.5596C24.0319 16.5445 26.0184 13.5804 28.4345 12.4652L28.7698 13.1916ZM24.3805 19.6804C24.2826 20.2971 24.2465 20.6311 24.2565 20.8533C24.2649 21.0396 24.3044 21.1364 24.3985 21.2813L23.7277 21.7173C23.5697 21.4742 23.4732 21.2413 23.4574 20.8893C23.4431 20.5732 23.4943 20.1603 23.5904 19.555L24.3805 19.6804ZM24.4023 21.2873L24.6932 21.7528L24.0148 22.1768L23.7239 21.7113L24.4023 21.2873ZM24.354 21.5648H32.3654V22.3648H24.354V21.5648ZM32.3654 21.5648C35.3529 21.5648 37.3651 21.5503 38.6512 21.5141C39.2954 21.4959 39.7494 21.4726 40.0498 21.4439C40.2012 21.4294 40.3031 21.4146 40.3666 21.401C40.3817 21.3978 40.393 21.395 40.4011 21.3927C40.4093 21.3904 40.4125 21.3892 40.4118 21.3895C40.4116 21.3896 40.4035 21.3926 40.3908 21.3997C40.379 21.4064 40.3541 21.4217 40.3266 21.4492L40.8923 22.0149C40.8215 22.0858 40.74 22.1206 40.6957 22.1374C40.6433 22.1573 40.5874 22.1719 40.5337 22.1834C40.426 22.2064 40.2889 22.2247 40.1259 22.2403C39.7977 22.2716 39.3218 22.2955 38.6737 22.3138C37.375 22.3503 35.3524 22.3648 32.3654 22.3648V21.5648ZM40.3266 21.4492C40.3078 21.4681 40.32 21.4656 40.3418 21.4013C40.3615 21.3434 40.3809 21.2594 40.3963 21.1475C40.4271 20.9243 40.4372 20.6284 40.4232 20.2888C40.3953 19.6094 40.2737 18.8048 40.0718 18.1439L40.8368 17.9102C41.0617 18.646 41.1922 19.5193 41.2225 20.2559C41.2377 20.6243 41.2283 20.971 41.1888 21.257C41.1691 21.3997 41.1406 21.537 41.0993 21.6585C41.0602 21.7736 40.9985 21.9087 40.8923 22.0149L40.3266 21.4492ZM40.072 18.1449C39.3823 15.9079 37.8204 14.0091 35.9792 13.1523L36.3167 12.427C38.3939 13.3936 40.0908 15.4907 40.8365 17.9092L40.072 18.1449ZM35.9792 13.1523L35.0667 12.7251L35.4058 12.0006L36.3167 12.427L35.9792 13.1523ZM34.8363 12.3661L34.8169 9.98015L35.6168 9.97364L35.6362 12.3596L34.8363 12.3661ZM34.8169 9.9769V7.61035H35.6169V9.9769H34.8169ZM35.2169 7.21035H36.4389V8.01035H35.2169V7.21035ZM36.4389 7.21035H37.6804V8.01035H36.4389V7.21035ZM37.9857 7.35197L39.9061 9.62153L39.2954 10.1383L37.375 7.86873L37.9857 7.35197ZM39.9061 9.62153C40.9549 10.8646 43.1414 13.4186 44.7555 15.3244L44.145 15.8414C42.5391 13.9452 40.3415 11.3781 39.2954 10.1383L39.9061 9.62153ZM44.7542 15.3229C45.5596 16.2641 46.307 17.1425 46.8629 17.8004C47.1408 18.1293 47.3713 18.4035 47.5374 18.6032C47.6921 18.7891 47.8133 18.9364 47.848 18.9884L47.1823 19.4322C47.1857 19.4372 47.1705 19.4166 47.1167 19.3504C47.07 19.2929 47.0047 19.2137 46.9224 19.1149C46.7582 18.9175 46.5292 18.645 46.2518 18.3167C45.6972 17.6604 44.951 16.7833 44.1463 15.843L44.7542 15.3229ZM47.8581 19.0045C47.9283 19.1215 47.9269 19.2384 47.9208 19.2998C47.9142 19.3675 47.8958 19.4284 47.8783 19.4755C47.8428 19.5708 47.7881 19.6699 47.7281 19.7634C47.6059 19.9538 47.4268 20.1747 47.216 20.3855L46.6504 19.8198C46.8275 19.6426 46.9685 19.4658 47.0548 19.3313C47.0991 19.2623 47.1208 19.2172 47.1284 19.1967C47.1324 19.1859 47.1272 19.1961 47.1247 19.2214C47.1228 19.2404 47.1165 19.3234 47.1721 19.4161L47.8581 19.0045ZM47.216 20.3855L46.5371 21.0644L45.9714 20.4987L46.6504 19.8198L47.216 20.3855ZM46.6542 20.7745L46.7124 24.0721L45.9125 24.0863L45.8543 20.7886L46.6542 20.7745ZM46.7124 24.0721C46.732 25.1702 46.7368 25.9508 46.789 26.5269C46.8421 27.1126 46.9391 27.3891 47.0692 27.5433C47.1869 27.6827 47.39 27.7888 47.8668 27.8537C48.3461 27.919 48.9972 27.9319 49.9352 27.9664L49.9059 28.7659C49.0012 28.7325 48.2893 28.7187 47.7588 28.6464C47.2256 28.5738 46.7717 28.4313 46.4577 28.0591C46.1562 27.7017 46.0471 27.2034 45.9923 26.5992C45.9366 25.9853 45.9317 25.1608 45.9125 24.0863L46.7124 24.0721ZM49.9352 27.9664L52.5926 28.0634L52.5634 28.8629L49.9059 28.7659L49.9352 27.9664ZM52.9778 28.4508L53.036 30.3324L52.2364 30.3571L52.1782 28.4755L52.9778 28.4508ZM53.036 30.3324L53.0942 32.2335L52.2946 32.258L52.2364 30.3571L53.036 30.3324ZM22.6178 32.5106L20.7362 30.6484L21.299 30.0798L23.1806 31.942L22.6178 32.5106ZM20.7347 30.647L18.8531 28.7654L19.4188 28.1997L21.3004 30.0813L20.7347 30.647ZM18.7379 28.4434L18.8543 27.2601L19.6505 27.3384L19.5341 28.5217L18.7379 28.4434ZM18.854 27.2637C19.1284 24.1901 17.2579 20.8256 13.9306 18.6326L14.3708 17.9646C17.8716 20.272 19.9583 23.8907 19.6508 27.3348L18.854 27.2637ZM13.9288 18.6314C12.986 18.0029 12.2293 17.6147 11.4791 17.3978C10.7327 17.1819 9.96852 17.1287 9.00241 17.2038L8.94046 16.4062C9.97234 16.326 10.8377 16.3795 11.7013 16.6293C12.5611 16.8779 13.395 17.3141 14.3726 17.9658L13.9288 18.6314ZM8.99804 17.2041C8.12149 17.2625 6.66341 17.3403 5.74899 17.3792L5.71498 16.5799C6.62396 16.5412 8.07557 16.4638 8.94483 16.4059L8.99804 17.2041ZM5.74448 17.3794C4.83391 17.4078 4.19414 17.5117 3.66781 17.7239C3.14828 17.9335 2.71001 18.2606 2.22297 18.7844L1.63706 18.2396C2.1781 17.6577 2.70969 17.2477 3.36859 16.982C4.02068 16.719 4.76786 16.6095 5.71949 16.5798L5.74448 17.3794ZM2.21812 18.7895C1.73452 19.2917 1.44222 19.7088 1.26455 20.1615C1.0863 20.6156 1.01094 21.1371 1.01094 21.8678H0.210938C0.210938 21.0856 0.290759 20.4529 0.519865 19.8692C0.749544 19.2841 1.11678 18.7798 1.64187 18.2345L2.21812 18.7895ZM1.01094 21.8678C1.01094 22.8764 1.10226 23.3118 1.4128 23.9157L0.701375 24.2815C0.313596 23.5275 0.210938 22.9543 0.210938 21.8678H1.01094ZM1.41219 23.9145C1.41072 23.9116 1.41366 23.9175 1.4254 23.9349C1.43632 23.9511 1.45167 23.9725 1.47222 23.9997C1.51341 24.0541 1.56995 24.1244 1.64238 24.2108C1.78702 24.3832 1.98648 24.6095 2.23473 24.8834C2.73074 25.4306 3.41279 26.158 4.2213 27.0052C5.83782 28.6992 7.95335 30.8656 10.0824 33.0141C12.2115 35.1625 14.3524 37.2913 16.0197 38.9102C16.8536 39.7199 17.5672 40.4002 18.1009 40.8912C18.368 41.1369 18.5874 41.3327 18.7529 41.4728C18.8359 41.5429 18.9023 41.5965 18.9526 41.6344C19.0103 41.6779 19.0262 41.6849 19.015 41.6796L18.6751 42.4038C18.6044 42.3706 18.5309 42.3184 18.4712 42.2734C18.4041 42.2228 18.325 42.1586 18.2362 42.0835C18.0584 41.9331 17.8297 41.7287 17.5593 41.4799C17.0178 40.9818 16.2982 40.2957 15.4624 39.4841C13.7902 37.8605 11.6454 35.7278 9.51415 33.5772C7.38293 31.4266 5.26365 29.2563 3.64254 27.5575C2.83223 26.7084 2.14476 25.9753 1.642 25.4207C1.39087 25.1436 1.18363 24.9087 1.02945 24.7249C0.88721 24.5553 0.760138 24.3949 0.701986 24.2827L1.41219 23.9145ZM19.0185 41.6813C19.1925 41.765 19.5471 41.8402 20.6616 41.882C21.7509 41.9229 23.4982 41.9326 26.3908 41.9326V42.7326C23.5028 42.7326 21.7391 42.723 20.6316 42.6814C19.5493 42.6408 19.0213 42.5705 18.6715 42.4021L19.0185 41.6813ZM26.3908 41.9326C28.581 41.9326 30.3374 41.9133 31.5761 41.8794C32.196 41.8625 32.6828 41.8421 33.0282 41.819C33.2014 41.8074 33.3342 41.7954 33.4285 41.7835C33.4758 41.7776 33.5087 41.7722 33.5297 41.768C33.5582 41.7622 33.5453 41.7623 33.5168 41.7755L33.852 42.5018C33.792 42.5296 33.7288 42.5439 33.6885 42.5521C33.6407 42.5617 33.5864 42.57 33.5284 42.5773C33.4119 42.5919 33.2615 42.6051 33.0816 42.6172C32.7208 42.6413 32.2219 42.6621 31.5979 42.6791C30.3489 42.7132 28.5845 42.7326 26.3908 42.7326V41.9326ZM33.4902 41.789C33.5295 41.7672 33.6063 41.7242 33.691 41.7C33.7872 41.6726 33.9526 41.6534 34.1126 41.761C34.2499 41.8534 34.3075 41.9915 34.335 42.0764C34.3654 42.1703 34.3839 42.2799 34.3971 42.3968C34.4489 42.8548 34.453 43.7737 34.453 45.4945H33.653C33.653 43.7431 33.6474 42.887 33.6022 42.4867C33.5911 42.389 33.5799 42.3413 33.574 42.323C33.5651 42.2956 33.5797 42.3667 33.6661 42.4248C33.7751 42.4982 33.8817 42.4775 33.91 42.4695C33.9269 42.4647 33.9267 42.4617 33.8787 42.4883L33.4902 41.789ZM34.453 45.4945C34.453 47.2346 34.4585 48.0967 34.5134 48.577C34.5403 48.8117 34.5753 48.9148 34.6046 48.9713C34.6312 49.0227 34.6654 49.0623 34.7682 49.1557L34.2301 49.7477C34.1195 49.6471 33.9912 49.5266 33.8942 49.3392C33.7998 49.1568 33.75 48.9423 33.7186 48.6678C33.6571 48.1298 33.653 47.2072 33.653 45.4945H34.453ZM34.7694 49.1568C34.868 49.2472 34.9961 49.3457 35.1209 49.4275C35.2537 49.5145 35.3502 49.5609 35.39 49.5729L35.1601 50.3392C35.006 50.2929 34.8308 50.1939 34.6824 50.0966C34.526 49.9941 34.363 49.8695 34.2288 49.7465L34.7694 49.1568ZM35.4155 49.5815C35.4995 49.613 35.5951 49.6655 35.6792 49.7615C35.7582 49.8517 35.8064 49.9568 35.8392 50.0617C35.9014 50.2601 35.934 50.5453 35.9557 50.9505C36.0001 51.7764 36.0048 53.2696 36.0048 55.9888H35.2048C35.2048 53.2571 35.1998 51.7921 35.1569 50.9934C35.135 50.5864 35.1046 50.3928 35.0758 50.3008C35.0632 50.2604 35.0589 50.2675 35.0774 50.2887C35.101 50.3156 35.1282 50.3281 35.1346 50.3306L35.4155 49.5815ZM36.0048 55.9888V61.9245H35.2048V55.9888H36.0048ZM35.6764 62.3181L35.2496 62.3957L35.1065 61.6086L35.5333 61.531L35.6764 62.3181ZM35.268 62.3919C34.9939 62.4551 34.0803 62.5934 33.2341 62.7088L33.126 61.9162C33.9868 61.7988 34.8579 61.6655 35.0881 61.6124L35.268 62.3919ZM33.2388 62.7082C31.4911 62.9674 30.2116 63.3371 29.38 63.789C28.5484 64.241 28.2456 64.7247 28.2456 65.2028H27.4456C27.4456 64.3036 28.045 63.6041 28.998 63.0861C29.951 62.5682 31.3386 62.1813 33.1214 61.9168L33.2388 62.7082ZM28.2456 65.2028C28.2456 65.4406 28.2754 65.5934 28.3324 65.7217C28.3904 65.8522 28.4911 65.9898 28.6844 66.1743L28.132 66.753C27.8985 66.5301 27.7179 66.3089 27.6014 66.0466C27.4838 65.7821 27.4456 65.5082 27.4456 65.2028H28.2456ZM28.6854 66.1753C28.9466 66.4264 29.3711 66.6743 29.9558 66.9041C30.5352 67.1317 31.2459 67.3315 32.0555 67.4999C33.6746 67.8367 35.6587 68.0417 37.7141 68.103C39.7687 68.1643 41.8836 68.0818 43.7629 67.848C45.6503 67.6131 47.2684 67.2294 48.3492 66.7051L48.6984 67.4249C47.5 68.0063 45.7792 68.4033 43.8616 68.6419C41.9359 68.8815 39.7796 68.965 37.6903 68.9027C35.6019 68.8404 33.5693 68.6319 31.8926 68.2831C31.0544 68.1088 30.2973 67.8977 29.6633 67.6487C29.0346 67.4017 28.5002 67.107 28.1309 66.752L28.6854 66.1753ZM48.347 66.7062C48.9807 66.394 49.3482 66.0632 49.5177 65.7497C49.6745 65.4597 49.6865 65.1401 49.5017 64.7551L50.2229 64.409C50.5036 64.9939 50.5156 65.586 50.2214 66.1302C49.9399 66.6508 49.4055 67.0765 48.7006 67.4238L48.347 66.7062ZM49.5008 64.7533C49.3003 64.33 48.8202 63.9113 47.9391 63.5394C47.0654 63.1705 45.8525 62.8712 44.2783 62.6504L44.3894 61.8582C45.9965 62.0836 47.286 62.3953 48.2502 62.8023C49.2071 63.2063 49.9005 63.7284 50.2238 64.4108L49.5008 64.7533ZM44.2796 62.6506L42.4368 62.3984L42.5453 61.6058L44.3881 61.858L44.2796 62.6506ZM42.0911 62.006L42.0329 55.9538L42.8329 55.9461L42.8911 61.9983L42.0911 62.006ZM42.0329 55.9538C42.0135 53.5022 42.0134 51.9793 42.0453 51.0695C42.061 50.6187 42.0852 50.2972 42.1237 50.0826C42.1422 49.9797 42.1695 49.8672 42.2199 49.771C42.2689 49.6774 42.3988 49.4978 42.6463 49.4978V50.2978C42.8404 50.2978 42.9224 50.154 42.9286 50.1421C42.9361 50.1278 42.9257 50.143 42.9111 50.224C42.8836 50.3774 42.8605 50.6487 42.8448 51.0975C42.8136 51.9869 42.8135 53.4901 42.8329 55.9461L42.0329 55.9538ZM42.6463 49.4978C42.6306 49.4978 42.6362 49.4999 42.6699 49.4909C42.6993 49.483 42.7382 49.4698 42.7834 49.451C42.8751 49.4128 42.9731 49.3595 43.0511 49.3028L43.5217 49.9497C43.3863 50.0482 43.2321 50.1307 43.0911 50.1895C42.9637 50.2426 42.7964 50.2978 42.6463 50.2978V49.4978ZM43.0434 49.3085C43.0828 49.2784 43.099 49.2602 43.1184 49.2159C43.1462 49.1527 43.1794 49.0335 43.2095 48.7893C43.2697 48.3005 43.3034 47.4503 43.3521 45.8701L44.1518 45.8948C44.1035 47.4571 44.0693 48.3527 44.0035 48.8871C43.9705 49.1545 43.9261 49.3663 43.8508 49.5377C43.7672 49.728 43.6548 49.8481 43.5294 49.9441L43.0434 49.3085ZM43.3521 45.8712L43.4491 42.4184L44.2488 42.4409L44.1518 45.8937L43.3521 45.8712ZM43.844 42.0297L48.5771 41.9715L48.5869 42.7714L43.8538 42.8296L43.844 42.0297ZM48.5788 41.9715L53.3312 41.9327L53.3378 42.7326L48.5853 42.7714L48.5788 41.9715ZM53.6166 42.0491L57.3022 45.7153L56.7386 46.283L53.0524 42.6162L53.6166 42.0491ZM57.3022 45.7153C58.3174 46.7208 59.3166 47.6716 60.1071 48.3923C60.5027 48.7529 60.8436 49.0536 61.1067 49.2737C61.2384 49.3839 61.3479 49.4716 61.4333 49.5357C61.476 49.5677 61.5104 49.5921 61.5371 49.6097C61.5658 49.6286 61.5771 49.6342 61.5753 49.6333L61.2328 50.3563C61.1466 50.3155 61.0469 50.2458 60.9535 50.1758C60.8522 50.0999 60.7307 50.0022 60.5933 49.8873C60.3181 49.657 59.9679 49.3479 59.5682 48.9835C58.7681 48.2542 57.7602 47.2949 56.7386 46.283L57.3022 45.7153ZM61.5884 49.6398C62.0218 49.8648 62.6851 50.0089 63.3937 50.0414C64.1003 50.0738 64.7944 49.9928 65.2811 49.8135L65.5577 50.5641C64.9387 50.7922 64.1296 50.876 63.357 50.8405C62.5865 50.8052 61.795 50.6485 61.2197 50.3498L61.5884 49.6398ZM65.273 49.8166C66.3695 49.3852 67.446 48.3887 67.8644 47.4125L68.5998 47.7276C68.087 48.924 66.8359 50.0614 65.5659 50.5611L65.273 49.8166ZM67.8669 47.407C68.0803 46.9288 68.2012 46.2595 68.2104 45.5692C68.2196 44.8784 68.1165 44.2147 67.9213 43.7478L68.6593 43.4392C68.9102 44.0392 69.0205 44.8206 69.0103 45.5799C69.0002 46.3395 68.8688 47.125 68.5974 47.7331L67.8669 47.407ZM67.9226 43.7511C67.8883 43.6708 67.7776 43.4978 67.5427 43.2042C67.3165 42.9214 66.9982 42.5546 66.5789 42.0956C65.7409 41.1782 64.5139 39.9075 62.8468 38.2307L63.4141 37.6667C65.0835 39.3457 66.32 40.6259 67.1696 41.5561C67.5942 42.0209 67.9256 42.4022 68.1674 42.7044C68.4005 42.9958 68.576 43.2446 68.658 43.4359L67.9226 43.7511ZM62.8476 38.2316L57.9981 33.3821L58.5638 32.8164L63.4133 37.6659L62.8476 38.2316ZM57.8811 33.0892L57.9393 30.7615L58.739 30.7815L58.6809 33.1092L57.8811 33.0892ZM57.9393 30.7615L57.9975 28.453L58.7972 28.4732L58.739 30.7815L57.9393 30.7615ZM58.3745 28.0638L59.0535 28.025L59.0991 28.8237L58.4202 28.8625L58.3745 28.0638ZM59.0553 28.0249C59.4352 28.0049 60.5694 27.9855 61.5592 27.9855V28.7855C60.5705 28.7855 59.4545 28.805 59.0973 28.8238L59.0553 28.0249ZM61.5548 27.9856C62.4508 27.9756 62.8542 27.9639 63.109 27.9022C63.305 27.8548 63.3984 27.7847 63.6623 27.5208L64.228 28.0864C63.9488 28.3657 63.7222 28.5768 63.2974 28.6797C62.9314 28.7684 62.4134 28.7761 61.5637 28.7855L61.5548 27.9856ZM63.6623 27.5208L64.2249 26.9582L64.7906 27.5239L64.228 28.0864L63.6623 27.5208ZM64.1077 27.2411V24.0016H64.9077V27.2411H64.1077ZM64.1077 24.0016C64.1077 23.0849 64.0884 22.2436 64.0549 21.6076C64.0381 21.2889 64.0181 21.0267 63.9958 20.8342C63.9846 20.7376 63.9735 20.6641 63.9632 20.6126C63.9502 20.5473 63.9452 20.5534 63.9626 20.5851L64.6646 20.2015C64.711 20.2866 64.7343 20.3884 64.7478 20.456C64.764 20.5374 64.778 20.6346 64.7905 20.7422C64.8155 20.9583 64.8366 21.2392 64.8538 21.5655C64.8882 22.2195 64.9077 23.0755 64.9077 24.0016H64.1077ZM63.9626 20.5851C63.8711 20.418 63.7837 20.3138 63.6638 20.2327C63.5376 20.1474 63.3459 20.0683 63.0151 20.0059C62.3393 19.8785 61.2213 19.8431 59.2315 19.8431V19.0431C61.1988 19.0431 62.3989 19.0756 63.1634 19.2198C63.5528 19.2932 63.8617 19.4008 64.112 19.57C64.3685 19.7436 64.533 19.9612 64.6646 20.2015L63.9626 20.5851ZM59.2315 19.8431H55.4683V19.0431H59.2315V19.8431ZM55.167 19.7062L52.7616 16.9517L53.3639 16.4251L55.7696 19.18L55.167 19.7062ZM52.7616 16.9517C47.5139 10.9571 44.3644 7.38115 42.4611 5.27692C41.5088 4.22404 40.8732 3.5448 40.4449 3.11686C40.2305 2.90261 40.0735 2.75672 39.9581 2.66015C39.9006 2.61206 39.857 2.57922 39.8248 2.55739C39.7914 2.53478 39.7777 2.5292 39.7796 2.52997L40.0815 1.7891C40.2074 1.84039 40.3371 1.93419 40.4715 2.04665C40.613 2.16505 40.789 2.32968 41.0104 2.55098C41.4539 2.99412 42.1009 3.68607 43.0545 4.74028C44.9629 6.85026 48.1173 10.4318 53.3639 16.4251L52.7616 16.9517ZM39.787 2.53287C39.8064 2.54035 39.7911 2.53289 39.6986 2.52084C39.6209 2.51074 39.5147 2.50039 39.3809 2.49018C39.1141 2.46984 38.7533 2.45128 38.3229 2.43561C37.4631 2.4043 36.3381 2.38496 35.1587 2.38496V1.58496C36.3457 1.58496 37.4806 1.60442 38.3521 1.63615C38.7873 1.65199 39.16 1.67101 39.4418 1.6925C39.5823 1.70322 39.7042 1.71484 39.8018 1.72753C39.8845 1.7383 39.9918 1.75439 40.0742 1.78612L39.787 2.53287ZM35.1587 2.38496C33.2629 2.38496 32.1885 2.39975 31.545 2.44925C30.8953 2.49922 30.7734 2.58127 30.7011 2.64145L30.1889 2.02683C30.4658 1.79604 30.8093 1.70348 31.4836 1.6516C32.164 1.59927 33.2718 1.58496 35.1587 1.58496V2.38496ZM39.736 3.80483C40.0922 4.18082 48.1864 13.3039 49.2941 14.606L48.6847 15.1244C47.5811 13.8271 39.4973 4.71616 39.1552 4.35503L39.736 3.80483ZM49.2978 14.6104C49.6608 15.0499 50.679 16.1833 51.5589 17.1805L50.959 17.7098C50.0931 16.7284 49.055 15.5728 48.681 15.1199L49.2978 14.6104ZM51.556 17.1772C52.0044 17.6744 52.4098 18.1384 52.7041 18.4866C52.8509 18.6603 52.9721 18.8076 53.0577 18.9169C53.1 18.9709 53.1371 19.02 53.1652 19.0605C53.1786 19.0799 53.1947 19.1041 53.2089 19.1293C53.2159 19.1415 53.2265 19.1613 53.2366 19.1856C53.2418 19.1982 53.269 19.2617 53.269 19.3461H52.469C52.469 19.4269 52.4948 19.4852 52.4972 19.4911C52.5045 19.5087 52.511 19.5203 52.5124 19.5228C52.5157 19.5286 52.5155 19.5275 52.5076 19.5161C52.4929 19.4949 52.467 19.4601 52.428 19.4104C52.3512 19.3124 52.2372 19.1736 52.093 19.003C51.8054 18.6626 51.4058 18.2052 50.9619 17.713L51.556 17.1772ZM53.269 19.3461C53.269 19.5362 53.1462 19.6433 53.1038 19.6755C53.0535 19.7136 53.0045 19.7332 52.9804 19.7421C52.9277 19.7616 52.8726 19.7728 52.8315 19.7799C52.743 19.7953 52.628 19.8067 52.5014 19.8155C52.2441 19.8333 51.8947 19.8431 51.5111 19.8431V19.0431C51.884 19.0431 52.2136 19.0335 52.4461 19.0174C52.5643 19.0092 52.647 19 52.6949 18.9917C52.722 18.987 52.7197 18.9856 52.7029 18.9918C52.6967 18.9941 52.6613 19.007 52.6203 19.0381C52.5871 19.0633 52.469 19.1633 52.469 19.3461H53.269ZM51.5111 19.8431H50.1727V19.0431H51.5111V19.8431ZM49.8678 19.7021L47.6758 17.1222L48.2855 16.6042L50.4775 19.1841L49.8678 19.7021ZM47.6741 17.1201C46.4729 15.6864 43.8368 12.6045 41.8181 10.2364L42.4269 9.7174C44.443 12.0824 47.0832 15.1691 48.2873 16.6063L47.6741 17.1201ZM41.8181 10.2364L38.1517 5.92986L38.7609 5.41126L42.4269 9.7174L41.8181 10.2364ZM38.4563 6.07056H36.1674V5.27056H38.4563V6.07056ZM36.1674 6.07056C35.4101 6.07056 34.8905 6.06526 34.5101 6.10969C34.134 6.1536 33.9956 6.23692 33.9194 6.33055C33.8272 6.44374 33.7486 6.66297 33.7101 7.15818C33.6726 7.64209 33.6771 8.29855 33.6771 9.22038H32.8771C32.8771 8.3188 32.8719 7.61984 32.9125 7.09627C32.9523 6.584 33.0398 6.14369 33.2991 5.82529C33.5745 5.4873 33.9732 5.36695 34.4173 5.31509C34.857 5.26373 35.4407 5.27056 36.1674 5.27056V6.07056ZM33.6771 9.22038V11.8973H32.8771V9.22038H33.6771ZM33.2516 12.2965L32.3399 12.2383L32.3903 11.4399L33.3025 11.4981L33.2516 12.2965ZM32.3399 12.2383L31.4093 12.1801L31.4592 11.3817L32.3903 11.4399L32.3399 12.2383ZM31.0343 11.7849L30.9955 7.92474L31.7954 7.9167L31.8342 11.7769L31.0343 11.7849ZM30.9955 7.92474C30.9858 6.86576 30.9858 5.87776 30.9955 5.14392C31.0004 4.77756 31.0077 4.47134 31.0177 4.25011C31.0227 4.1403 31.0285 4.04615 31.0356 3.97415C31.0391 3.93897 31.0435 3.90175 31.0498 3.86766C31.0529 3.85097 31.0577 3.82771 31.0653 3.8024C31.0697 3.78792 31.0875 3.72686 31.1337 3.66535L31.7737 4.14534C31.8162 4.08867 31.8305 4.03588 31.8313 4.03298C31.8336 4.02539 31.835 4.01976 31.8356 4.01696C31.8363 4.014 31.8366 4.01233 31.8366 4.01233C31.8366 4.01226 31.8365 4.01315 31.8362 4.01517C31.8358 4.01715 31.8355 4.01991 31.835 4.02351C31.834 4.03081 31.8329 4.04045 31.8317 4.05273C31.8267 4.10355 31.8216 4.1811 31.8169 4.28618C31.8075 4.49475 31.8003 4.79107 31.7954 5.15456C31.7858 5.88041 31.7858 6.86131 31.7954 7.9167L30.9955 7.92474ZM31.1107 3.69955C31.1628 3.61266 31.233 3.5682 31.2609 3.55175C31.2956 3.53125 31.3279 3.51841 31.3493 3.51075C31.3927 3.49524 31.4374 3.48494 31.4739 3.47767C31.5498 3.4626 31.6455 3.45012 31.7518 3.43923C31.9673 3.41717 32.2646 3.39798 32.619 3.38209C33.3297 3.35023 34.2913 3.33077 35.3332 3.33077V4.13077C34.2996 4.13077 33.3505 4.1501 32.6548 4.18129C32.3061 4.19692 32.0263 4.21531 31.8333 4.23507C31.7353 4.2451 31.6688 4.25458 31.6299 4.26232C31.6091 4.26646 31.6083 4.26777 31.6187 4.26405C31.6236 4.26229 31.6426 4.2554 31.6672 4.24088C31.6849 4.2304 31.7482 4.19197 31.7967 4.11114L31.1107 3.69955ZM35.3332 3.33077C36.9947 3.33077 37.965 3.34014 38.558 3.39039C39.1543 3.44092 39.4698 3.53817 39.7286 3.79699L39.1628 4.36277C39.1112 4.31124 39.0386 4.23399 38.4904 4.18753C37.939 4.1408 37.0082 4.13077 35.3332 4.13077V3.33077ZM35.2069 13.9187C35.8595 14.2134 36.776 14.8863 37.257 15.4091L36.6683 15.9507C36.257 15.5037 35.4277 14.8963 34.8776 14.6479L35.2069 13.9187ZM37.257 15.4091C37.7263 15.9201 38.216 16.6817 38.5988 17.4273C38.9765 18.1632 39.2827 18.9462 39.3392 19.4995L38.5433 19.5807C38.5028 19.1835 38.2561 18.5116 37.8871 17.7927C37.523 17.0835 37.0719 16.3902 36.6683 15.9507L37.257 15.4091ZM39.3392 19.4995L39.3975 20.0822L38.6014 20.1618L38.5433 19.5807L39.3392 19.4995ZM38.9995 20.522H32.4042V19.722H38.9995V20.522ZM32.4042 20.522H25.8089V19.722H32.4042V20.522ZM25.4109 20.0822L25.469 19.5003L26.2651 19.5799L26.2069 20.1618L25.4109 20.0822ZM25.4696 19.4949C25.5263 18.9957 25.8152 18.2355 26.1623 17.5243C26.5129 16.8056 26.9592 16.0633 27.3748 15.6052L27.9674 16.1426C27.6264 16.5186 27.2192 17.1826 26.8812 17.8751C26.5396 18.5751 26.3048 19.231 26.2645 19.5853L25.4696 19.4949ZM27.37 15.6105C29.3843 13.3085 32.5057 12.6195 35.2156 13.9228L34.8689 14.6437C32.4966 13.5029 29.7598 14.0942 27.9721 16.1373L27.37 15.6105ZM12.2561 18.8536C14.9785 20.2348 17.2902 23.0033 17.7642 25.5381L16.9776 25.6852C16.5593 23.4481 14.448 20.8627 11.8942 19.567L12.2561 18.8536ZM17.7661 25.5508C17.8059 25.8093 17.8364 26.057 17.8519 26.2514C17.8596 26.3475 17.8643 26.4381 17.8635 26.5133C17.8631 26.5502 17.8614 26.5924 17.8558 26.6338C17.853 26.6551 17.8418 26.7513 17.7812 26.8422L17.1155 26.3984C17.0847 26.4448 17.0729 26.4852 17.0693 26.498C17.0647 26.5148 17.0631 26.5261 17.0629 26.5281C17.0623 26.532 17.0633 26.5259 17.0635 26.5049C17.064 26.4643 17.0613 26.4009 17.0545 26.3152C17.0409 26.1459 17.0133 25.9184 16.9754 25.6725L17.7661 25.5508ZM17.7044 26.9276C17.5814 27.0301 17.4474 27.0241 17.3991 27.0186C17.3436 27.0123 17.3017 26.9959 17.283 26.9881C17.2428 26.9713 17.2108 26.9509 17.1952 26.9406C17.1592 26.9169 17.1209 26.887 17.086 26.8585C17.0131 26.799 16.9157 26.7132 16.8007 26.6085C16.5689 26.3976 16.247 26.0931 15.867 25.7273C15.1063 24.9949 14.1043 24.008 13.1067 23.0116C12.1091 22.0153 11.1143 21.0077 10.3681 20.2339C9.99538 19.8474 9.68263 19.517 9.4621 19.2748C9.35241 19.1543 9.26194 19.0516 9.19744 18.9731C9.16587 18.9347 9.13531 18.8958 9.1108 18.8602C9.09897 18.843 9.08301 18.8186 9.06841 18.7906C9.06408 18.7822 9.01759 18.6998 9.01759 18.5896H9.81759C9.81759 18.5276 9.80262 18.4816 9.79669 18.4646C9.78929 18.4434 9.78176 18.4283 9.77824 18.4216C9.77125 18.4081 9.76664 18.402 9.76979 18.4066C9.77524 18.4145 9.78913 18.4331 9.81556 18.4653C9.86705 18.5279 9.94672 18.6187 10.0537 18.7362C10.2665 18.9699 10.5729 19.2937 10.944 19.6786C11.6854 20.4475 12.6764 21.4512 13.672 22.4456C14.6676 23.44 15.6659 24.4232 16.4219 25.151C16.8003 25.5154 17.1158 25.8136 17.3391 26.0168C17.4516 26.1192 17.5362 26.1933 17.592 26.2389C17.6055 26.2499 17.6162 26.2583 17.6243 26.2644C17.6328 26.2709 17.636 26.273 17.635 26.2723C17.6344 26.2719 17.6309 26.2697 17.6252 26.2664C17.6202 26.2636 17.6084 26.2571 17.5916 26.25C17.5784 26.2445 17.5411 26.2296 17.4893 26.2237C17.4447 26.2186 17.3135 26.2121 17.1923 26.313L17.7044 26.9276ZM9.01759 18.5896C9.01759 18.4704 9.06188 18.3595 9.13923 18.2741C9.20905 18.197 9.29074 18.1567 9.35035 18.1349C9.46493 18.0929 9.58959 18.0862 9.68791 18.0875C9.89613 18.0901 10.1608 18.1333 10.437 18.1976C10.9951 18.3276 11.6901 18.5654 12.2561 18.8536L11.8942 19.567C11.3933 19.312 10.7595 19.0941 10.2556 18.9767C10.0007 18.9174 9.80104 18.889 9.67768 18.8874C9.61021 18.8866 9.60226 18.8946 9.6257 18.886C9.63972 18.8809 9.6862 18.8619 9.7322 18.8112C9.78572 18.7521 9.81759 18.6724 9.81759 18.5896H9.01759ZM7.38964 18.9237C7.47211 18.9723 7.59553 19.0783 7.72 19.1888C7.85946 19.3127 8.04239 19.4813 8.26244 19.6881C8.703 20.1021 9.29966 20.6763 10.0096 21.368C11.4297 22.7517 13.3078 24.6104 15.3065 26.6091L14.7408 27.1747C12.7435 25.1775 10.8681 23.3214 9.45123 21.941C8.74263 21.2505 8.14995 20.6802 7.71458 20.2711C7.49665 20.0663 7.31997 19.9035 7.18869 19.7869C7.04243 19.657 6.98398 19.6133 6.98401 19.6133L7.38964 18.9237ZM15.3065 26.6091L22.5811 33.9031L22.0146 34.468L14.7408 27.1747L15.3065 26.6091ZM22.2978 33.7855H32.5981V34.5855H22.2978V33.7855ZM51.2007 33.7855H56.8067V34.5855H51.2007V33.7855ZM57.0884 33.9015L61.7245 38.4988L61.1612 39.0669L56.5251 34.4695L57.0884 33.9015ZM61.7245 38.4988C63.0076 39.7722 64.2137 41.0123 65.1265 41.9835C65.5827 42.4689 65.9674 42.889 66.2524 43.2134C66.3948 43.3754 66.5143 43.5158 66.6062 43.6298C66.6917 43.736 66.7717 43.8411 66.8175 43.9244L66.1164 44.31C66.1166 44.3104 66.1142 44.306 66.1074 44.2958C66.1009 44.286 66.092 44.2731 66.0802 44.2569C66.0564 44.2244 66.0244 44.1828 65.9834 44.1319C65.9014 44.0302 65.7901 43.8992 65.6515 43.7414C65.3746 43.4264 64.9966 43.0135 64.5436 42.5314C63.6379 41.5677 62.4386 40.3347 61.1612 39.0669L61.7245 38.4988ZM66.8217 43.9325C67.089 44.4458 67.227 44.9524 67.2184 45.4839C67.21 46.0125 67.0571 46.5366 66.7872 47.0867L66.069 46.7344C66.3034 46.2564 66.4125 45.8494 66.4185 45.4711C66.4246 45.0958 66.3297 44.7198 66.1121 44.302L66.8217 43.9325ZM66.7899 47.0811C66.0646 48.6197 64.4299 49.3431 62.7946 48.9071L63.0007 48.1341C64.2751 48.4739 65.5114 47.9171 66.0663 46.74L66.7899 47.0811ZM62.7981 48.908C62.3642 48.7964 61.9418 48.5351 61.2346 47.9236C60.5239 47.3091 59.4809 46.3 57.805 44.6337L58.3685 44.0658C60.0484 45.7359 61.0719 46.7254 61.7578 47.3184C62.4472 47.9145 62.7522 48.0702 62.9973 48.1332L62.7981 48.908ZM57.805 44.6337L53.8096 40.6771L54.3725 40.1086L58.3685 44.0658L57.805 44.6337ZM54.091 40.7928H46.1185V39.9929H54.091V40.7928ZM28.6798 40.7928H19.6015V39.9929H28.6798V40.7928ZM19.3187 40.6757L11.0164 32.3734L11.5815 31.8071L19.8844 40.11L19.3187 40.6757ZM11.0164 32.3734C8.72639 30.0931 6.61607 27.9634 5.05772 26.3662C4.27874 25.5678 3.63676 24.9016 3.17919 24.416C2.95065 24.1734 2.76639 23.9741 2.63349 23.8252C2.56725 23.751 2.5116 23.6868 2.46882 23.6348C2.435 23.5937 2.38449 23.5312 2.35297 23.4721L3.05885 23.0957C3.04673 23.0729 3.04456 23.0754 3.08658 23.1265C3.11962 23.1667 3.16729 23.2218 3.2304 23.2925C3.35618 23.4335 3.53472 23.6267 3.76143 23.8673C4.21435 24.348 4.85263 25.0105 5.63033 25.8075C7.18535 27.4013 9.29348 29.5288 11.5815 31.8071L11.0164 32.3734ZM2.35297 23.4721C2.24843 23.2761 2.17123 23.0088 2.11985 22.7545C2.06722 22.494 2.03434 22.21 2.03434 21.9648H2.83434C2.83434 22.1464 2.85965 22.3765 2.90401 22.5961C2.94962 22.8218 3.00821 23.0007 3.05885 23.0957L2.35297 23.4721ZM2.03434 21.9648C2.03434 19.134 4.97178 17.4643 7.39353 18.9261L6.98012 19.611C5.09554 18.4734 2.83434 19.7522 2.83434 21.9648H2.03434ZM63.1619 24.0016V26.6203H62.3619V24.0016H63.1619ZM62.7598 27.0203L55.4468 26.9815L55.451 26.1815L62.764 26.2203L62.7598 27.0203ZM55.4457 26.9815L48.1133 26.9233L48.1196 26.1234L55.4521 26.1815L55.4457 26.9815ZM47.7166 26.5334L47.6584 24.2251L48.4582 24.2049L48.5163 26.5133L47.7166 26.5334ZM47.6583 24.2211C47.6486 23.5775 47.6486 22.9623 47.6559 22.4896C47.6596 22.2536 47.6651 22.0508 47.6724 21.8966C47.676 21.8199 47.6801 21.7521 47.685 21.697C47.6888 21.6543 47.6956 21.5842 47.7125 21.5252L48.4817 21.745C48.4889 21.7199 48.4865 21.7159 48.4819 21.7678C48.4784 21.8073 48.4748 21.8628 48.4715 21.9342C48.4648 22.0765 48.4594 22.2701 48.4558 22.5021C48.4486 22.9653 48.4486 23.5722 48.4582 24.2089L47.6583 24.2211ZM47.7257 21.4865C47.7713 21.3725 47.8519 21.3042 47.907 21.2674C47.9635 21.2298 48.0222 21.2058 48.0702 21.1896C48.1661 21.1572 48.2834 21.1349 48.4126 21.1174C48.6755 21.0819 49.0683 21.0559 49.6252 21.0365C50.7439 20.9974 52.5791 20.9829 55.4877 20.9829V21.7829C52.5769 21.7829 50.7556 21.7975 49.6532 21.836C49.0996 21.8553 48.7407 21.8803 48.5199 21.9102C48.4073 21.9255 48.3496 21.9396 48.3263 21.9475C48.3147 21.9514 48.3276 21.9486 48.3508 21.9331C48.3727 21.9185 48.4326 21.8734 48.4685 21.7836L47.7257 21.4865ZM55.4877 20.9829H62.7619V21.7829H55.4877V20.9829ZM63.1619 21.3829V24.0016H62.3619V21.3829H63.1619ZM56.9156 30.3518L56.9738 32.2334L56.1742 32.2581L56.116 30.3765L56.9156 30.3518ZM56.574 32.6457H55.5847V31.8457H56.574V32.6457ZM55.5847 32.6457H54.6148V31.8457H55.5847V32.6457ZM54.2148 32.2457V30.2865H55.0148V32.2457H54.2148ZM54.2148 30.2865V28.3273H55.0148V30.2865H54.2148ZM54.648 27.9287L55.5791 28.0063L55.5127 28.8036L54.5816 28.726L54.648 27.9287ZM55.5714 28.0057L56.4831 28.0639L56.4321 28.8623L55.5204 28.8042L55.5714 28.0057ZM56.8574 28.4509L56.9156 30.3518L56.116 30.3765L56.0578 28.4754L56.8574 28.4509ZM39.3098 41.9326H42.0061V42.7326H39.3098V41.9326ZM42.4061 42.3326V45.2423H41.6061V42.3326H42.4061ZM42.4061 45.2423V48.1714H41.6061V45.2423H42.4061ZM40.8155 55.9474L40.8543 61.9219L40.0543 61.9271L40.0155 55.9526L40.8155 55.9474ZM40.4543 62.3245H38.9025V61.5245H40.4543V62.3245ZM38.9025 62.3245H37.3506V61.5245H38.9025V62.3245ZM36.9506 61.9245V56.047H37.7506V61.9245H36.9506ZM36.9506 56.047C36.9506 54.4253 36.9652 52.9334 36.9895 51.836C37.0017 51.2879 37.0163 50.8353 37.033 50.5133C37.0413 50.3532 37.0503 50.2202 37.0604 50.1221C37.0653 50.0741 37.0712 50.0265 37.079 49.9853C37.0827 49.9654 37.0886 49.9376 37.098 49.9081C37.1005 49.9002 37.1258 49.8091 37.2036 49.7314L37.7693 50.2971C37.8134 50.253 37.8353 50.2096 37.843 50.1936C37.8528 50.1735 37.8581 50.1575 37.8604 50.1502C37.865 50.1357 37.8662 50.128 37.8652 50.1331C37.8636 50.1417 37.8603 50.1636 37.8562 50.2036C37.8482 50.2815 37.84 50.3987 37.8319 50.5547C37.8159 50.865 37.8014 51.3084 37.7893 51.8538C37.7652 52.9435 37.7506 54.4292 37.7506 56.047H36.9506ZM37.2036 49.7314C37.2915 49.6434 37.3996 49.6128 37.4319 49.6035C37.4843 49.5884 37.5403 49.5782 37.5922 49.5707C37.6976 49.5555 37.8284 49.5457 37.9707 49.5394C38.2575 49.5267 38.6266 49.5268 39.0097 49.5367L38.9892 50.3365C38.6158 50.3269 38.2671 50.3271 38.006 50.3387C37.8742 50.3445 37.7735 50.3529 37.7061 50.3626C37.69 50.3649 37.6773 50.3671 37.6678 50.3689C37.6631 50.3699 37.6596 50.3707 37.6571 50.3713C37.6545 50.3719 37.6534 50.3722 37.6535 50.3722C37.6535 50.3721 37.6555 50.3716 37.6591 50.3703C37.6626 50.369 37.6689 50.3666 37.6772 50.3628C37.6891 50.3572 37.7281 50.3382 37.7693 50.2971L37.2036 49.7314ZM39.0166 49.537L40.3744 49.5952L40.3402 50.3945L38.9823 50.3363L39.0166 49.537ZM40.7573 49.9909L40.8155 55.9461L40.0155 55.9539L39.9573 49.9987L40.7573 49.9909ZM44.2015 63.6437C44.9704 63.7635 45.958 64.0009 46.7527 64.2347C47.1498 64.3515 47.5084 64.4702 47.7723 64.576C47.9021 64.6281 48.0227 64.6825 48.1164 64.7374C48.1617 64.764 48.2176 64.8004 48.2674 64.8475C48.2994 64.8778 48.4195 64.9944 48.4195 65.1834H47.6195C47.6195 65.2708 47.6498 65.3348 47.6698 65.3681C47.6898 65.4015 47.7099 65.4214 47.7173 65.4284C47.7313 65.4417 47.7346 65.4409 47.7117 65.4275C47.6691 65.4026 47.5916 65.3655 47.4744 65.3185C47.2443 65.2262 46.913 65.1157 46.5269 65.0022C45.7553 64.7752 44.8031 64.5471 44.0783 64.4341L44.2015 63.6437ZM48.4195 65.1834C48.4195 65.3264 48.3503 65.4264 48.3155 65.4699C48.2757 65.5196 48.2309 65.5571 48.1965 65.5829C48.1266 65.6355 48.041 65.6834 47.9559 65.7259C47.7817 65.8128 47.5459 65.9081 47.279 66.0037C46.7422 66.196 46.0386 66.4039 45.3553 66.5623L45.1746 65.783C45.8298 65.6311 46.5035 65.4317 47.0093 65.2505C47.2637 65.1594 47.4656 65.0765 47.5987 65.0101C47.6673 64.9758 47.7028 64.9533 47.7155 64.9437C47.7225 64.9384 47.7094 64.9468 47.691 64.9698C47.6776 64.9866 47.6195 65.0622 47.6195 65.1834H48.4195ZM45.3553 66.5623C44.5256 66.7545 43.0523 66.916 41.5247 67.0132C39.9921 67.1106 38.3684 67.1456 37.2293 67.0763L37.2779 66.2778C38.3696 66.3442 39.9562 66.3113 41.474 66.2148C42.9967 66.118 44.4136 65.9593 45.1746 65.783L45.3553 66.5623ZM37.2323 67.0765C35.4006 66.9785 33.5623 66.7386 32.1762 66.4555C31.4853 66.3143 30.8934 66.1598 30.467 66.0019C30.2564 65.9239 30.0662 65.8379 29.9214 65.7414C29.8491 65.6932 29.7719 65.6319 29.7094 65.554C29.6466 65.4758 29.5794 65.3562 29.5794 65.2028H30.3794C30.3794 65.1148 30.3407 65.0625 30.3331 65.053C30.3258 65.0439 30.3305 65.0527 30.3651 65.0757C30.4338 65.1215 30.5568 65.1821 30.7448 65.2517C31.1156 65.389 31.6621 65.5339 32.3363 65.6717C33.6804 65.9462 35.4792 66.1816 37.275 66.2776L37.2323 67.0765ZM29.5794 65.2028C29.5794 65.0687 29.6332 64.963 29.6836 64.8931C29.7337 64.8237 29.7948 64.7693 29.8497 64.7277C29.9594 64.6447 30.0995 64.572 30.2478 64.5073C30.5489 64.376 30.963 64.2443 31.4429 64.1197C32.4071 63.8694 33.6917 63.6335 34.9974 63.4862L35.0873 64.2812C33.8131 64.4249 32.5661 64.6546 31.6439 64.894C31.1805 65.0144 30.8127 65.1337 30.5676 65.2406C30.4428 65.295 30.3688 65.3382 30.3325 65.3656C30.3146 65.3792 30.3198 65.3786 30.3323 65.3613C30.345 65.3436 30.3794 65.2883 30.3794 65.2028H29.5794ZM34.9974 63.4862C35.9668 63.3762 37.7988 63.348 39.6053 63.3795C41.4122 63.4111 43.2388 63.5033 44.1976 63.6431L44.0822 64.4347C43.1788 64.303 41.3974 64.2109 39.5914 64.1794C37.7851 64.1479 35.9996 64.1777 35.0873 64.2812L34.9974 63.4862ZM28.6798 39.9929H46.1185V40.7928H28.6798V39.9929ZM42.0061 48.5714H35.8958V47.7714H42.0061V48.5714ZM35.4958 48.1714V42.3326H36.2958V48.1714H35.4958ZM35.8958 41.9326H39.3098V42.7326H35.8958V41.9326ZM22.8994 31.8263L52.6946 31.8457L52.6941 32.6457L22.8989 32.6263L22.8994 31.8263ZM51.2007 34.5855H32.5981V33.7855H51.2007V34.5855Z" fill="#995C19"/>
</g>
</g>
<defs>
<clipPath id="clip0_628_704">
<rect width="69" height="68" fill="white" transform="translate(0 1)"/>
</clipPath>
</defs>
</svg>
